<?xml version="1.0" standalone="no"?><!DOCTYPE svg PUBLIC "-//W3C//DTD SVG 1.1//EN" "http://www.w3.org/Graphics/SVG/1.1/DTD/svg11.dtd"><svg class="icon" width="200px" height="200.00px" viewBox="0 0 1024 1024" version="1.1" xmlns="http://www.w3.org/2000/svg"><path fill="#ffffff" d="M669.866667 750.933333c-6.4 0-12.8-4.266667-17.066667-8.533333L597.333333 686.933333c-8.533333-8.533333-8.533333-25.6 0-34.133333s25.6-8.533333 34.133334 0l17.066666 17.066667v-87.466667c0-12.8 10.666667-23.466667 23.466667-23.466667 12.8 0 23.466667 10.666667 23.466667 23.466667v87.466667l17.066666-17.066667c8.533333-8.533333 25.6-8.533333 34.133334 0s8.533333 25.6 0 34.133333l-55.466667 55.466667c-10.666667 8.533333-21.333333 8.533333-21.333333 8.533333z m0 87.466667c-102.4 0-183.466667-83.2-183.466667-183.466667s83.2-183.466667 183.466667-183.466666S853.333333 554.666667 853.333333 654.933333s-83.2 183.466667-183.466666 183.466667z m0-49.066667c74.666667 0 136.533333-61.866667 136.533333-136.533333s-61.866667-136.533333-136.533333-136.533333-136.533333 61.866667-136.533334 136.533333 61.866667 136.533333 136.533334 136.533333z m166.4-360.533333c0 14.933333-10.666667 23.466667-21.333334 23.466667-12.8 0-23.466667-10.666667-23.466666-23.466667v-64c0-21.333333-17.066667-40.533333-40.533334-40.533333h-181.333333c-12.8 0-23.466667-4.266667-34.133333-10.666667l-110.933334-83.2c-2.133333 0-2.133333-2.133333-4.266666-2.133333h-149.333334c-21.333333 0-40.533333 17.066667-40.533333 40.533333v448c0 21.333333 17.066667 40.533333 40.533333 40.533333h160c12.8 0 23.466667 10.666667 23.466667 23.466667s-10.666667 23.466667-23.466667 23.466667h-162.133333c-49.066667 0-87.466667-38.4-87.466667-87.466667v-448c0-49.066667 38.4-87.466667 87.466667-87.466667h149.333333c12.8 0 23.466667 4.266667 34.133334 10.666667l110.933333 83.2c2.133333 0 2.133333 2.133333 4.266667 2.133333h181.333333c49.066667 0 87.466667 38.4 87.466667 87.466667v64z" /></svg>