<?xml version="1.0" standalone="no"?><!DOCTYPE svg PUBLIC "-//W3C//DTD SVG 1.1//EN" "http://www.w3.org/Graphics/SVG/1.1/DTD/svg11.dtd"><svg class="icon" width="200px" height="199.80px" viewBox="0 0 1025 1024" version="1.1" xmlns="http://www.w3.org/2000/svg"><path fill="#ffffff" d="M957.678592 317.6448c-5.799936-9.921536-18.53952-13.280256-28.474368-7.493632l-166.518784 97.135616c-7.673856 4.482048-11.365376 13.12768-9.976832 21.41184-0.19456 1.124352-0.347136 2.262016-0.347136 3.427328l0 206.345216c-25.033728-24.561664-59.29472-39.742464-97.135616-39.742464-76.640256 0-138.765312 62.125056-138.765312 138.765312 0 76.640256 62.125056 138.766336 138.765312 138.766336s138.765312-62.125056 138.765312-138.766336L793.991168 437.233664l156.194816-91.113472C960.120832 340.319232 963.465216 327.580672 957.678592 317.6448zM655.224832 834.630656c-53.646336 0-97.135616-43.48928-97.135616-97.135616 0-53.646336 43.48928-97.135616 97.135616-97.135616 53.64736 0 97.135616 43.48928 97.135616 97.135616C752.360448 791.141376 708.871168 834.630656 655.224832 834.630656zM562.367488 547.811328c5.203968-10.241024 1.096704-22.771712-9.158656-27.961344-17.799168-9.024512-36.1216-16.37888-54.895616-22.049792 56.433664-32.275456 94.471168-93.057024 94.471168-162.726912 0-103.463936-83.884032-187.333632-187.333632-187.333632-0.001024 0-0.002048 0-0.003072 0s-0.002048 0-0.003072 0c-103.463936 0-187.333632 83.869696-187.333632 187.333632 0 68.46464 36.731904 128.338944 91.557888 161.019904-141.867008 39.876608-246.177792 170.395648-246.177792 324.836352 0 11.48928 9.325568 20.814848 20.814848 20.814848 11.48928 0 20.814848-9.325568 20.814848-20.814848 0-163.07712 132.673536-295.737344 295.737344-295.737344 46.98624 0 91.918336 10.684416 133.548032 31.791104C544.606208 562.173952 557.164544 558.094336 562.367488 547.811328zM508.473344 232.045568c26.363904 26.366976 42.669056 62.793728 42.669056 103.028736s-16.305152 76.66176-42.669056 103.028736c-26.366976 26.366976-62.79168 42.6752-103.02464 42.6752-80.482304-0.002048-145.700864-65.234944-145.700864-145.703936 0-80.468992 65.21856-145.701888 145.700864-145.703936C445.681664 189.371392 482.106368 205.679616 508.473344 232.045568z" /></svg>